<?xml version="1.0" encoding="UTF-8" standalone="no"?>
<svg
   xmlns:dc="http://purl.org/dc/elements/1.1/"
   xmlns:cc="http://creativecommons.org/ns#"
   xmlns:rdf="http://www.w3.org/1999/02/22-rdf-syntax-ns#"
   xmlns:svg="http://www.w3.org/2000/svg"
   xmlns="http://www.w3.org/2000/svg"
   xmlns:sodipodi="http://sodipodi.sourceforge.net/DTD/sodipodi-0.dtd"
   xmlns:inkscape="http://www.inkscape.org/namespaces/inkscape"
   width="210mm"
   height="297mm"
   viewBox="0 0 210 297"
   version="1.1"
   id="svg8"
   inkscape:version="1.0 (4035a4fb49, 2020-05-01)"
   sodipodi:docname="logo.svg">
  <defs
     id="defs2">
    <inkscape:path-effect
       effect="powerclip"
       id="path-effect904"
       is_visible="true"
       lpeversion="1"
       inverse="true"
       flatten="false"
       hide_clip="false"
       message="Use fill-rule evenodd on &lt;b&gt;fill and stroke&lt;/b&gt; dialog if no flatten result after convert clip to paths." />
    <inkscape:path-effect
       effect="powerclip"
       id="path-effect894"
       is_visible="true"
       lpeversion="1"
       inverse="true"
       flatten="false"
       hide_clip="false"
       message="Use fill-rule evenodd on &lt;b&gt;fill and stroke&lt;/b&gt; dialog if no flatten result after convert clip to paths." />
    <clipPath
       clipPathUnits="userSpaceOnUse"
       id="clipPath854">
      <rect
         style="fill:#000000;stroke:#319ed6;stroke-width:1;stroke-miterlimit:4;stroke-dasharray:none;stroke-opacity:1"
         id="rect856"
         width="276.35669"
         height="256.04419"
         x="-173.7252"
         y="-33.141422" />
    </clipPath>
    <clipPath
       clipPathUnits="userSpaceOnUse"
       id="clipPath876">
      <rect
         style="fill:#000000;stroke:#319ed6;stroke-width:1;stroke-miterlimit:4;stroke-dasharray:none;stroke-opacity:1"
         id="rect878"
         width="200.98668"
         height="246.4225"
         x="-132.56569"
         y="-21.381565" />
    </clipPath>
    <clipPath
       clipPathUnits="userSpaceOnUse"
       id="clipPath890">
      <path
         style="display:none;fill:#000000;stroke:#000000;stroke-width:0.264583px;stroke-linecap:butt;stroke-linejoin:miter;stroke-opacity:1"
         d="m -34.210499,189.76136 -11.759861,-1.87088 -14.165281,-5.61266 -14.699824,-13.36348 c 0,0 -6.1472,-12.82894 -6.68174,-14.69982 -0.534538,-1.87089 -1.870887,-12.02713 -1.870887,-14.16529 0,-2.13815 1.603618,-8.01808 6.147199,-10.15624 4.543584,-2.13816 17.372521,6.1472 18.441599,8.55263 1.069078,2.40542 5.078121,17.63978 9.087162,22.18337 4.009041,4.54358 11.759861,9.6217 13.096203,11.49259 1.336349,1.87088 5.879939,12.29439 6.68174,13.36347 0.801809,1.06908 -4.27631,4.27631 -4.27631,4.27631 z"
         id="path892" />
    </clipPath>
    <clipPath
       id="clipath_lpe_path-effect904"
       clipPathUnits="userSpaceOnUse">
      <path
         id="path906"
         d="m -34.210499,189.76136 -11.759861,-1.87088 -14.165281,-5.61266 -14.699824,-13.36348 c 0,0 -6.1472,-12.82894 -6.68174,-14.69982 -0.534538,-1.87089 -1.870887,-12.02713 -1.870887,-14.16529 0,-2.13815 1.603618,-8.01808 6.147199,-10.15624 4.543584,-2.13816 17.372521,6.1472 18.441599,8.55263 1.069078,2.40542 5.078121,17.63978 9.087162,22.18337 4.009041,4.54358 11.759861,9.6217 13.096203,11.49259 1.336349,1.87088 5.879939,12.29439 6.68174,13.36347 0.801809,1.06908 -4.27631,4.27631 -4.27631,4.27631 z"
         style="display:block;fill:#000000;stroke:#000000;stroke-width:0.264583px;stroke-linecap:butt;stroke-linejoin:miter;stroke-opacity:1" />
    </clipPath>
    <clipPath
       clipPathUnits="userSpaceOnUse"
       id="clipPath920">
      <rect
         style="fill:#000000;fill-opacity:1;stroke:#319ed6;stroke-width:0.1;stroke-miterlimit:4;stroke-dasharray:none;stroke-opacity:1"
         id="rect922"
         width="197.77945"
         height="243.7498"
         x="10.690781"
         y="5.3453903" />
    </clipPath>
  </defs>
  <sodipodi:namedview
     id="base"
     pagecolor="#ffffff"
     bordercolor="#666666"
     borderopacity="1.0"
     inkscape:pageopacity="0.0"
     inkscape:pageshadow="2"
     inkscape:zoom="0.7"
     inkscape:cx="313.23463"
     inkscape:cy="485.21109"
     inkscape:document-units="mm"
     inkscape:current-layer="layer1"
     inkscape:document-rotation="0"
     showgrid="false"
     inkscape:window-width="1920"
     inkscape:window-height="1013"
     inkscape:window-x="-9"
     inkscape:window-y="-9"
     inkscape:window-maximized="1"
     inkscape:snap-global="false" />
  <metadata
     id="metadata5">
    <rdf:RDF>
      <cc:Work
         rdf:about="">
        <dc:format>image/svg+xml</dc:format>
        <dc:type
           rdf:resource="http://purl.org/dc/dcmitype/StillImage" />
        <dc:title />
      </cc:Work>
    </rdf:RDF>
  </metadata>
  <g
     inkscape:label="Layer 1"
     inkscape:groupmode="layer"
     id="layer1">
    <g
       inkscape:export-ydpi="96"
       inkscape:export-xdpi="96"
       id="g857">
      <g
         id="g850">
        <path
           style="fill:#dcf3fa;stroke:none;stroke-width:0.264583px;stroke-linecap:butt;stroke-linejoin:miter;stroke-opacity:1;fill-opacity:1"
           d="m 169.62353,140.11846 c 0,0 -21.7202,-15.89007 -61.14436,-8.20477 -34.141423,6.65549 -44.354886,-3.24522 -44.354886,-3.24522 l -2.419671,2.30028 -2.551339,4.25223 -2.645833,6.61459 -1.795387,6.3311 -1.322917,6.99256 0.188988,7.37053 0.944941,7.37054 10.488839,23.62351 14.930059,13.89062 19.938244,9.16593 22.300592,0.94494 20.12724,-7.65402 11.33928,-7.55952 6.3311,-6.3311 2.55134,-3.20099 2.57497,-4.6184 2.72851,-5.14992 3.15374,-7.64221 1.83618,-7.2232 1.03567,-5.91334 -0.13364,-7.65059 c 0,0 -1.33634,-8.21853 -1.36975,-8.38558 -0.0334,-0.16704 -1.30294,-4.51017 -1.36976,-5.21175 -0.0668,-0.70159 -1.36215,-0.86622 -1.36215,-0.86622 z"
           id="path940"
           sodipodi:nodetypes="csc" />
        <path
           id="path872"
           d="M -68.58078,330.4919 V 316.38079 H 107.8081 284.19699 v 14.11111 14.11111 H 107.8081 -68.58078 Z m 14.81667,4.83732 c 0,-0.0559 0.7117,-2.11963 1.58156,-4.58611 0.86987,-2.46651 1.45895,-4.48454 1.30907,-4.48454 -0.14987,0 -0.88558,1.78593 -1.6349,3.96875 -0.74933,2.18281 -1.47073,4.09313 -1.60312,4.24515 -0.13238,0.15201 -0.82751,-1.43549 -1.54473,-3.52778 -1.31322,-3.83099 -1.8287,-4.98186 -2.09437,-4.67589 -0.32094,0.3696 3.0434,9.16199 3.50577,9.16199 0.26439,0 0.48072,-0.0457 0.48072,-0.10157 z m 7.32014,-0.12079 c 0.43656,-0.11698 0.79375,-0.34187 0.79375,-0.49971 0,-0.15787 -0.48535,-0.14781 -1.07855,0.0222 -1.65102,0.4736 -3.50757,-0.49206 -3.50757,-1.82429 0,-0.56589 0.2994,-0.65087 2.29306,-0.65087 h 2.29306 v -1.07439 c 0,-1.24206 -1.35651,-2.80617 -2.43374,-2.80617 -1.31445,0 -2.55852,1.46844 -2.76023,3.25798 -0.16752,1.48625 -0.0806,1.75228 0.88951,2.72242 1.05791,1.05787 1.94308,1.27293 3.51071,0.8528 z m -3.66584,-3.8373 c -0.11226,-0.29256 0.0613,-0.93688 0.38557,-1.43186 0.82257,-1.25539 2.63692,-1.09615 3.29775,0.28949 0.25485,0.53435 0.36564,1.12967 0.24621,1.32292 -0.36277,0.58695 -3.69373,0.43392 -3.92953,-0.18055 z m 10.45681,3.69707 c 0.39691,-0.26388 0.22057,-0.33588 -0.70556,-0.28811 -1.75515,0.0906 -2.65428,-0.28762 -3.12146,-1.31297 -0.51543,-1.13125 -0.51566,-2.10831 -7.4e-4,-3.08659 0.56626,-1.07583 0.9771,-1.28468 2.59302,-1.31823 1.25122,-0.0261 1.32372,-0.0715 0.63983,-0.40206 -0.9642,-0.46602 -2.38327,-0.12908 -3.29464,0.78229 -0.78262,0.78263 -0.96541,3.41566 -0.32074,4.62022 0.63852,1.1931 3.05867,1.77105 4.21027,1.00545 z m 3.52777,0.1862 c 0,-0.097 -0.3175,-0.49389 -0.70555,-0.88195 -0.56083,-0.56081 -0.70556,-1.17591 -0.70556,-2.99861 0,-2.05786 0.0724,-2.29305 0.70556,-2.29305 0.38805,0 0.70555,-0.15875 0.70555,-0.35278 0,-0.19403 -0.30744,-0.35278 -0.6832,-0.35278 -0.50642,0 -0.72002,-0.29665 -0.82549,-1.14653 -0.0782,-0.63059 -0.16769,0.66661 -0.19874,2.88266 -0.0464,3.30881 0.0479,4.1445 0.52739,4.6743 0.55039,0.60816 1.18004,0.85828 1.18004,0.46874 z m 5.0942,-0.16838 c 0.49885,-0.18966 1.17653,-0.91038 1.50637,-1.60207 0.53967,-1.13171 0.54829,-1.40533 0.0863,-2.73844 -0.91742,-2.64731 -3.90831,-3.11982 -5.3001,-0.83732 -1.15644,1.89657 -0.66532,4.18151 1.08962,5.06949 1.06254,0.5376 1.44692,0.55351 2.6178,0.10834 z m -2.19279,-0.40055 c -0.9552,-0.35334 -1.49029,-1.37922 -1.49029,-2.85718 0,-1.73976 0.8484,-2.7475 2.31305,-2.7475 1.64226,0 2.62583,1.02775 2.62583,2.74373 0,2.27975 -1.54804,3.56404 -3.44859,2.86095 z m 5.91804,-2.03284 c 0,-2.75816 0.008,-2.78197 1.09448,-3.30825 0.60196,-0.29153 0.94285,-0.62378 0.75752,-0.73829 -0.18532,-0.11455 -0.63284,0.008 -0.99449,0.27256 -0.56461,0.41285 -0.71994,0.39878 -1.09908,-0.0995 -0.36276,-0.47675 -0.44355,0.0649 -0.45277,3.03569 -0.007,2.18295 0.12859,3.61597 0.34156,3.61597 0.20532,0 0.35278,-1.16124 0.35278,-2.77816 z m 7.75416,2.32505 c 1.24971,-0.63235 1.78627,-1.86679 1.35239,-3.11143 -0.27968,-0.80229 -0.78174,-1.16403 -2.4697,-1.77948 -2.23985,-0.81668 -2.75952,-1.38666 -2.04701,-2.24518 0.55985,-0.67459 1.86884,-0.66905 3.18879,0.0134 0.96895,0.50105 1.04081,0.49378 1.04081,-0.10551 0,-0.66806 -1.69132,-1.49106 -3.06427,-1.49106 -1.04958,0 -2.58017,1.33548 -2.58017,2.25126 0,1.24237 0.73096,1.92263 2.82222,2.62657 1.6182,0.54465 1.95843,0.80497 2.04962,1.56806 0.14563,1.21874 -0.90919,1.76128 -3.12907,1.60937 -1.78714,-0.12227 -2.41805,0.40933 -0.96984,0.81721 1.3433,0.37836 2.87756,0.31651 3.80623,-0.15335 z m 5.38589,0.0148 c 0.0803,-0.24102 -0.18424,-0.6022 -0.58796,-0.80261 -0.60579,-0.30074 -0.75239,-0.74806 -0.83906,-2.56039 -0.0962,-2.01207 -0.0445,-2.19601 0.61736,-2.19601 0.40694,0 0.72239,-0.23106 0.72239,-0.52916 0,-0.29397 -0.31358,-0.52917 -0.70556,-0.52917 -0.54877,0 -0.70555,-0.2352 -0.70555,-1.05833 0,-0.70556 -0.17639,-1.05834 -0.52917,-1.05834 -0.43773,0 -0.52917,0.65889 -0.52917,3.81314 0,3.83449 0.23738,4.69477 1.41111,5.11426 0.83693,0.29912 0.99006,0.27326 1.14561,-0.19339 z m 5.32528,0.0465 c 1.0006,-0.45583 1.643,-1.68201 1.643,-3.13602 0,-1.45401 -0.6424,-2.68019 -1.643,-3.13609 -2.28914,-1.04302 -4.35422,0.44436 -4.35422,3.13609 0,2.70358 2.05501,4.1837 4.35422,3.13609 z m -2.71204,-1.31177 c -0.78903,-0.87189 -0.75433,-2.9718 0.0613,-3.70992 1.4441,-1.3069 3.23542,-0.22899 3.23542,1.94691 0,2.09988 -2.01611,3.17804 -3.29671,1.76301 z m 9.98927,1.36447 c 0.76814,-0.48581 0.13869,-0.8891 -1.20671,-0.77322 -0.89914,0.0775 -1.31343,-0.0902 -1.74496,-0.70633 -1.30853,-1.86817 -0.10179,-4.39776 1.954,-4.09603 1.14172,0.16757 1.73262,-0.33598 0.96489,-0.82225 -1.85623,-1.17564 -4.54311,0.72224 -4.54311,3.20911 0,2.51023 2.68748,4.38305 4.57589,3.18879 z m 2.54757,-1.13291 c 0.0597,-0.80952 0.28797,-1.53081 0.50734,-1.60284 0.21937,-0.072 0.85437,0.59002 1.41111,1.47126 0.71819,1.13675 1.24616,1.60238 1.81743,1.60284 0.76122,0 0.72751,-0.10223 -0.61736,-1.88351 -0.7824,-1.03625 -1.42254,-2.02177 -1.42254,-2.18998 0,-0.1682 0.58784,-0.90784 1.30632,-1.64362 1.11368,-1.14053 1.20192,-1.33781 0.59837,-1.33781 -0.38937,0 -1.24648,0.55563 -1.90469,1.23472 -0.65821,0.6791 -1.32435,1.23473 -1.48032,1.23473 -0.15596,0 -0.28357,-1.03188 -0.28357,-2.29306 0,-1.80308 -0.11307,-2.29305 -0.52917,-2.29305 -0.44323,0 -0.52916,0.74474 -0.52916,4.58611 0,3.76011 0.0917,4.58611 0.50888,4.58611 0.34468,0 0.54389,-0.47495 0.61736,-1.4719 z m 243.91739,-1.40155 c 0.43837,-1.38264 0.66802,-2.37331 0.51034,-2.20147 -0.15768,0.17184 -0.56746,1.18554 -0.91061,2.2527 -0.34315,1.06715 -0.70546,2.1784 -0.80513,2.46944 -0.0997,0.29104 -0.0486,0.40859 0.11358,0.2612 0.16214,-0.14739 0.65346,-1.39923 1.09182,-2.78187 z m -52.06669,0.20507 c 0.42381,-1.27356 0.68739,-2.39878 0.58572,-2.50042 -0.10167,-0.10167 -0.46447,0.70221 -0.80624,1.7864 -0.34176,1.08423 -0.72215,1.97129 -0.84532,1.97129 -0.12316,0 -0.49915,-0.87313 -0.83554,-1.94028 -0.33639,-1.06715 -0.74033,-1.94028 -0.89764,-1.94028 -0.15732,0 0.11006,1.11125 0.59417,2.46945 0.4841,1.35819 1.00486,2.46944 1.15723,2.46944 0.15237,0 0.6238,-1.042 1.04762,-2.3156 z m 4.07773,1.91707 c 0.15052,-0.24356 0.0557,-0.3307 -0.24377,-0.22409 -0.58547,0.20846 -1.7248,-0.3206 -1.7248,-0.80091 0,-0.18718 0.55563,-0.34036 1.23473,-0.34036 0.67909,0 1.23472,-0.14743 1.23472,-0.32759 0,-0.49283 -1.0428,-1.4363 -1.5875,-1.4363 -0.65392,0 -1.5875,0.98393 -1.5875,1.67312 0,1.32045 2.06352,2.44408 2.67412,1.45613 z m -1.96857,-2.0331 c 0,-0.41144 1.03039,-0.80221 1.44295,-0.54723 0.62177,0.38428 0.31078,0.86226 -0.561,0.86226 -0.48507,0 -0.88195,-0.14178 -0.88195,-0.31503 z m 5.99723,2.0429 c 0.43145,-0.30815 0.39184,-0.34826 -0.21448,-0.2171 -0.99995,0.21629 -1.90219,-0.33538 -1.90219,-1.1631 0,-0.75791 0.97792,-1.40208 1.7248,-1.13616 0.29948,0.10661 0.39429,0.0194 0.24376,-0.22408 -0.35521,-0.57475 -1.28273,-0.49005 -2.02898,0.18531 -0.80052,0.72446 -0.82014,1.46029 -0.0613,2.29881 0.65676,0.72569 1.45353,0.81696 2.23838,0.25632 z m 2.18722,-0.0346 c -0.5252,-0.52518 -0.56063,-2.39889 -0.0454,-2.39889 0.20788,0 0.12095,-0.25703 -0.19319,-0.57114 -0.75777,-0.75777 -1.05175,-0.38979 -0.94577,1.18392 0.0904,1.34249 0.57207,2.20944 1.22751,2.20944 0.24767,0 0.23261,-0.14753 -0.0432,-0.42333 z m 4.00333,-0.43494 c 1.06237,-1.6214 -0.90864,-3.40854 -2.33528,-2.11744 -0.8342,0.75491 -0.86429,1.48209 -0.0964,2.33059 0.80618,0.8908 1.76334,0.80691 2.43171,-0.21315 z m -1.90318,0.0657 c -0.96443,-0.96442 -0.0909,-2.61574 1.05834,-2.00067 0.35833,0.19177 0.65151,0.655 0.65151,1.02941 0,0.88032 -1.14844,1.53267 -1.70985,0.97126 z m 3.82651,-0.45314 c 0,-0.78193 0.19703,-1.3214 0.52917,-1.44886 0.29104,-0.11169 0.52917,-0.36424 0.52917,-0.56127 0,-0.20648 -0.22416,-0.17219 -0.52917,0.0809 -0.3656,0.30342 -0.52917,0.31679 -0.52917,0.0432 0,-0.21777 -0.15875,-0.39596 -0.35277,-0.39596 -0.19403,0 -0.35278,0.79375 -0.35278,1.76389 0,0.97014 0.15875,1.76389 0.35278,1.76389 0.19402,0 0.35277,-0.5606 0.35277,-1.2458 z m 4.38453,0.69145 c 0.8117,-0.81171 0.69407,-1.15091 -0.68036,-1.96184 -1.57371,-0.92851 -1.62232,-1.71714 -0.10583,-1.71714 0.87532,0 1.03421,-0.0947 0.70737,-0.42154 -0.29777,-0.29774 -0.70586,-0.32148 -1.39005,-0.0809 -1.44393,0.50782 -1.42089,1.42575 0.0577,2.29814 1.68116,0.9919 1.69435,1.85995 0.0253,1.66511 -1.20307,-0.14044 -1.67809,0.18203 -0.79375,0.53887 0.85074,0.34328 1.63038,0.22856 2.17967,-0.32071 z m 2.38881,0.13102 c -0.5252,-0.52518 -0.56063,-2.39889 -0.0454,-2.39889 0.20788,0 0.12095,-0.25704 -0.19319,-0.57115 -0.75777,-0.75777 -1.05175,-0.38978 -0.94577,1.18392 0.0904,1.3425 0.57207,2.20945 1.22751,2.20945 0.24767,0 0.23261,-0.14753 -0.0432,-0.42333 z m 4.01883,-0.45861 c 0.53531,-0.817 0.53531,-0.9469 0,-1.76389 -0.67048,-1.02327 -1.47371,-1.12364 -2.38592,-0.2981 -0.80052,0.72446 -0.82013,1.46029 -0.0613,2.29881 0.81196,0.89718 1.76458,0.805 2.44721,-0.23682 z m -1.91868,0.0893 c -0.96443,-0.96442 -0.0909,-2.61574 1.05834,-2.00067 0.35833,0.19177 0.65151,0.655 0.65151,1.0294 0,0.88032 -1.14844,1.53268 -1.70985,0.97127 z m 5.94318,0.40382 c 0.43146,-0.30815 0.39185,-0.34826 -0.21448,-0.2171 -0.99995,0.21629 -1.90219,-0.33538 -1.90219,-1.1631 0,-0.75791 0.97792,-1.40208 1.72481,-1.13616 0.29948,0.10661 0.39428,0.0194 0.24376,-0.22408 -0.35522,-0.57475 -1.28273,-0.49005 -2.02898,0.18531 -0.80052,0.72446 -0.82014,1.46029 -0.0613,2.29881 0.65676,0.72569 1.45353,0.81696 2.23838,0.25632 z m 1.41111,-0.49314 c 0,-0.48507 0.13327,-0.88195 0.29615,-0.88195 0.16289,0 0.47698,0.39688 0.698,0.88195 0.22101,0.48506 0.57296,0.88194 0.78212,0.88194 0.21772,0 0.11391,-0.45096 -0.24284,-1.05488 -0.48746,-0.82521 -0.53021,-1.14779 -0.19633,-1.48166 0.83445,-0.83446 0.41154,-1.09989 -0.45515,-0.28568 l -0.88195,0.82853 v -1.4726 c 0,-0.80994 -0.15875,-1.4726 -0.35278,-1.4726 -0.20158,0 -0.35277,1.05833 -0.35277,2.46945 0,1.41111 0.15119,2.46944 0.35277,2.46944 0.19403,0 0.35278,-0.39687 0.35278,-0.88194 z m 3.52778,0.52916 c 0,-0.19403 -0.15875,-0.35278 -0.35278,-0.35278 -0.19403,0 -0.35278,0.15875 -0.35278,0.35278 0,0.19403 0.15875,0.35278 0.35278,0.35278 0.19403,0 0.35278,-0.15875 0.35278,-0.35278 z m 3.88056,-0.036 c 0.41744,-0.29816 0.34684,-0.33739 -0.33442,-0.18573 -1.01212,0.22528 -1.78225,-0.30195 -1.78225,-1.22016 0,-0.73635 0.98834,-1.37269 1.7248,-1.11047 0.29948,0.10661 0.39429,0.0194 0.24376,-0.22408 -0.35521,-0.57475 -1.28273,-0.49005 -2.02898,0.18531 -0.80052,0.72446 -0.82014,1.46029 -0.0613,2.29881 0.65676,0.72569 1.45353,0.81696 2.23838,0.25632 z m 3.7366,-0.49314 c 0.53531,-0.817 0.53531,-0.9469 0,-1.76389 -0.67047,-1.02327 -1.47371,-1.12364 -2.38591,-0.2981 -0.80052,0.72446 -0.82014,1.46029 -0.0613,2.29881 0.81196,0.89718 1.76458,0.805 2.44721,-0.23682 z m -1.71187,0.13197 c -0.33749,-0.18888 -0.61362,-0.64745 -0.61362,-1.01903 0,-0.8762 1.14998,-1.52602 1.70984,-0.96616 0.9719,0.97191 0.0562,2.6301 -1.09622,1.98519 z m 3.68661,-0.57295 c 0.088,-1.06263 0.26565,-1.3451 0.90324,-1.43566 0.71158,-0.10104 0.79375,0.0359 0.79375,1.32292 0,0.78962 0.15875,1.43566 0.35278,1.43566 0.19402,0 0.35277,-0.53619 0.35277,-1.19154 0,-1.15909 0.71166,-2.21255 1.17899,-1.74523 0.12767,0.12767 0.23213,0.84067 0.23213,1.58447 0,0.74376 0.15875,1.3523 0.35277,1.3523 0.51732,0 0.43036,-2.2285 -0.11612,-2.97586 -0.38342,-0.52433 -0.60461,-0.5686 -1.21331,-0.24285 -0.4266,0.22832 -0.82854,0.26229 -0.94146,0.0796 -0.10839,-0.17536 -0.75302,-0.30307 -1.43253,-0.28381 l -1.23547,0.0349 v 1.69397 c 0,1.99569 0.6136,2.29044 0.77246,0.37105 z m 11.0204,0.76857 c 0.65585,-0.65585 0.66147,-0.70302 0.18918,-1.58549 -0.23499,-0.43911 -0.73809,-0.68238 -1.41111,-0.68238 -0.57526,0 -1.04593,-0.127 -1.04593,-0.28222 0,-0.5514 0.85887,-1.12889 1.67888,-1.12889 0.46497,0 0.736,-0.15568 0.61418,-0.35278 -0.64975,-1.05131 -2.99861,0.73233 -2.99861,2.277 0,0.9754 1.10614,2.30911 1.91508,2.30911 0.27718,0 0.75343,-0.24945 1.05833,-0.55435 z m -2.13989,-0.67935 c -0.12191,-0.31768 -0.0587,-0.74059 0.1405,-0.93976 0.57506,-0.57507 1.67181,-0.18751 1.67181,0.59079 0,0.89736 -1.49166,1.1846 -1.81231,0.34897 z m 5.2519,0.9754 c -0.82462,-0.0743 -1.49931,-0.25545 -1.49931,-0.40263 0,-0.14718 0.55562,-0.75949 1.23472,-1.36073 1.38197,-1.22351 1.47984,-1.56337 0.68036,-2.36287 -0.60799,-0.60798 -0.8741,-0.66093 -1.70984,-0.34022 -0.94362,0.36209 -0.61808,0.73081 0.50032,0.56666 1.50445,-0.2208 1.41428,0.87546 -0.1764,2.14465 -1.82334,1.45485 -1.64236,2.02702 0.61737,1.95181 1.77069,-0.0589 1.78619,-0.0676 0.35278,-0.19667 z m 4.6543,-0.52575 c 1.05956,-1.51275 0.28711,-4.15484 -1.21472,-4.15484 -0.84119,0 -1.76389,1.2918 -1.76389,2.46945 0,1.17764 0.9227,2.46944 1.76389,2.46944 0.36605,0 0.91267,-0.35281 1.21472,-0.78405 z m -2.1231,-0.39236 c -0.10982,-0.28617 -0.14879,-1.05135 -0.0866,-1.70042 0.0952,-0.99346 0.25255,-1.18011 0.995,-1.18011 0.81008,0 0.88194,0.12936 0.88194,1.5875 0,1.37865 -0.10463,1.60235 -0.79532,1.70042 -0.45932,0.0652 -0.87969,-0.10689 -0.995,-0.40739 z m 5.61201,0.53591 c 1.49052,-1.64702 0.68406,-4.7123 -1.09151,-4.14878 -1.6288,0.51696 -1.23518,2.67261 0.48802,2.67261 0.46131,0 0.83875,0.127 0.83875,0.28223 0,0.49854 -0.82734,1.12888 -1.48167,1.12888 -0.34925,0 -0.635,0.15875 -0.635,0.35278 0,0.58822 1.26355,0.39501 1.88141,-0.28772 z m -1.28125,-2.05194 c -0.13606,-0.13606 -0.24738,-0.54945 -0.24738,-0.91866 0,-0.49439 0.20919,-0.6416 0.79375,-0.55859 0.5189,0.0737 0.79375,0.35539 0.79375,0.81347 0,0.69977 -0.87215,1.13174 -1.34012,0.66378 z m 5.45748,2.10859 c 0.35483,-0.3211 0.64514,-0.82454 0.64514,-1.11873 0,-0.77872 -1.05952,-1.8252 -1.84796,-1.8252 -1.03136,0 -0.53754,-0.84931 0.64234,-1.10479 0.97222,-0.2105 0.95595,-0.22514 -0.29369,-0.26459 -1.2538,-0.0395 -1.32291,0.0155 -1.32291,1.05435 0,0.79559 0.13566,1.04401 0.49487,0.90618 0.73121,-0.2806 1.71907,0.58724 1.56227,1.37245 -0.0956,0.47868 -0.42279,0.67807 -1.09669,0.66834 -0.94794,-0.0138 -1.18433,0.20161 -0.72527,0.66064 0.41025,0.41025 1.27485,0.25503 1.9419,-0.34865 z m 4.3293,-0.2002 c 1.05957,-1.51275 0.28712,-4.15484 -1.21472,-4.15484 -0.84118,0 -1.76389,1.2918 -1.76389,2.46945 0,1.17764 0.92271,2.46944 1.76389,2.46944 0.36606,0 0.91268,-0.35281 1.21472,-0.78405 z m -2.1231,-0.39236 c -0.10981,-0.28617 -0.14879,-1.05135 -0.0866,-1.70042 0.0952,-0.99346 0.25254,-1.18011 0.99499,-1.18011 0.81009,0 0.88195,0.12936 0.88195,1.5875 0,1.37865 -0.10464,1.60235 -0.79533,1.70042 -0.45932,0.0652 -0.87968,-0.10689 -0.995,-0.40739 z m 5.99846,0.62206 c 0.63429,-0.6343 0.70323,-1.07591 0.21507,-1.3776 -0.21244,-0.13131 -0.21741,-0.5303 -0.0133,-1.06723 0.5502,-1.44709 -1.13636,-2.592 -2.10282,-1.42748 -0.23382,0.28173 -0.32617,0.82399 -0.20524,1.20506 0.12094,0.38103 0.0547,0.79488 -0.14724,0.91969 -0.83196,0.51417 0.11582,2.30191 1.22037,2.30191 0.26332,0 0.72824,-0.24945 1.03313,-0.55435 z m -1.7966,-0.70408 c -0.31994,-0.83375 0.43072,-1.42716 1.10129,-0.87065 0.29927,0.24839 0.54412,0.67027 0.54412,0.93754 0,0.67052 -1.38403,0.61425 -1.64541,-0.0669 z m 0.46949,-1.79899 c -0.48563,-0.4856 -0.2095,-1.17591 0.47037,-1.17591 0.47037,0 0.70555,0.23519 0.70555,0.70555 0,0.67988 -0.6903,0.95599 -1.17592,0.47036 z m -263.5674,-4.6107 c -0.0119,-0.69945 -0.21075,-0.98538 -0.72195,-1.03808 -0.54838,-0.0565 -0.56803,-0.0321 -0.0882,0.10925 0.33955,0.10012 0.61737,0.34611 0.61737,0.54667 0,0.20055 -0.23813,0.27329 -0.52917,0.1616 -0.32806,-0.1259 -0.52917,0 -0.52917,0.33585 0,0.2964 0.14778,0.44757 0.3284,0.33595 0.18063,-0.11162 0.42812,-0.0416 0.54999,0.15557 0.33392,0.54028 0.39064,0.44796 0.37273,-0.60681 z m 63.226781,-39.83595 c -0.529307,-0.0915 -1.292973,-0.58658 -1.697034,-1.10027 -0.695741,-0.88448 -0.727635,-1.27543 -0.602029,-7.37934 0.07295,-3.54496 0.234841,-6.54759 0.359766,-6.67252 0.124926,-0.12492 2.211215,-0.24682 4.636199,-0.27089 3.653419,-0.0362 4.508538,0.0553 4.989498,0.53428 0.38293,0.38134 0.497325,0.8399 0.33618,1.34761 -0.228318,0.71937 -0.389425,0.75404 -2.469152,0.53132 -1.223691,-0.13104 -2.876342,-0.1282 -3.672554,0.006 l -1.447663,0.24458 v 1.92525 1.92526 l 1.146528,-0.17755 c 3.684464,-0.57055 5.094365,-0.58735 5.527157,-0.0659 0.242072,0.29168 0.386104,0.81577 0.320068,1.16464 -0.125677,0.66394 -1.212547,0.9415 -5.334843,1.36239 l -2.045258,0.20882 0.10498,2.00099 0.10498,2.00099 h 3.275919 c 2.528012,0 3.352323,0.12082 3.610571,0.52917 0.456932,0.72253 0.431588,0.90046 -0.203327,1.42739 -0.560755,0.46539 -5.145229,0.76756 -6.939986,0.45743 z m 45.106099,-0.21969 c -0.41681,-0.30478 -0.86044,-1.68324 -1.36492,-4.24112 -0.41107,-2.08427 -0.862,-3.66702 -1.00209,-3.51721 -0.52884,0.56555 -2.44199,5.4966 -2.44199,6.29412 0,0.96987 -1.12222,1.70221 -2.12212,1.38485 -0.69503,-0.22059 -0.87967,-0.71783 -1.89885,-5.11355 -0.29242,-1.26118 -1.00155,-3.67078 -1.57585,-5.35467 -0.85396,-2.50386 -0.96523,-3.16959 -0.61078,-3.65433 0.65171,-0.89127 1.72389,-0.49137 2.39989,0.89511 0.33111,0.6791 0.98729,2.74285 1.45819,4.58612 0.96712,3.78568 0.80182,3.86781 2.52066,-1.2525 1.11896,-3.33334 1.79994,-4.39195 2.82524,-4.39195 1.0175,0 1.37154,0.91546 2.0941,5.41478 0.82192,5.11798 0.93577,5.15421 2.62437,0.8353 0.80156,-2.0501 1.45737,-3.90606 1.45737,-4.12435 0,-0.88214 1.11411,-2.47851 1.72976,-2.47851 1.19531,0 1.6295,0.93471 1.11693,2.40448 -1.32931,3.81169 -4.79891,11.61251 -5.40295,12.14761 -0.83244,0.73743 -1.00373,0.75315 -1.80696,0.16582 z m 64.15905,0.27815 c -0.19402,-0.0647 -0.7998,-0.21659 -1.34616,-0.33748 -1.78284,-0.39448 -2.08178,-1.84385 -1.79624,-8.70876 0.13664,-3.28506 0.35335,-6.03769 0.48157,-6.11693 0.12822,-0.0793 1.8249,-0.25372 3.77039,-0.38771 4.47347,-0.30811 6.21843,0.14122 6.05434,1.55897 -0.10639,0.91925 -0.14969,0.93411 -2.4014,0.8238 -1.26118,-0.0618 -2.96774,-0.0124 -3.79236,0.10981 l -1.4993,0.22214 v 1.92283 1.92284 l 1.32291,-0.16731 c 5.2272,-0.66107 5.88191,-0.55673 5.67531,0.90442 -0.13449,0.95122 -0.97463,1.21658 -4.96975,1.56969 l -2.38125,0.21046 0.005,1.29483 c 0.003,0.71217 0.10627,1.67396 0.23028,2.13732 0.22143,0.82742 0.28084,0.83889 3.32362,0.64176 2.39686,-0.15529 3.18981,-0.0903 3.50302,0.2871 0.61574,0.74192 0.26995,1.69672 -0.71359,1.97039 -0.90215,0.25103 -4.83311,0.35302 -5.4662,0.14183 z M 29.49162,287.07583 c -2.49687,-1.04994 -3.52796,-3.57219 -3.52796,-8.63007 0,-3.66377 0.4608,-5.45667 1.40243,-5.45667 1.20279,0 1.41634,0.81676 1.34601,5.14807 -0.0899,5.5366 0.52538,6.84638 3.21614,6.84638 2.10802,0 3.29835,-2.55753 3.72929,-8.01273 0.27132,-3.43454 0.66543,-4.21234 1.93087,-3.8107 0.63476,0.20146 0.72248,0.52041 0.72248,2.62683 0,4.81313 -1.41151,8.98731 -3.58166,10.59176 -1.27581,0.94325 -3.8405,1.28461 -5.2376,0.69713 z M 7.8146,286.53964 c -0.48637,-0.48638 -0.53077,-1.33845 -0.3355,-6.4382 0.12379,-3.23269 0.40558,-6.2745 0.6262,-6.75957 0.32646,-0.71777 0.69469,-0.90287 1.97806,-0.99434 2.43349,-0.17346 3.75403,0.21183 5.11038,1.49104 1.07068,1.00978 1.24492,1.39903 1.24492,2.78108 0,2.60455 -1.89122,4.45022 -4.93889,4.81992 l -1.5875,0.19258 -0.10696,2.27952 c -0.13987,2.9808 -0.78553,3.83314 -1.99071,2.62797 z m 5.34243,-8.09576 c 1.09433,-0.71703 1.10441,-2.42697 0.0185,-3.13058 -0.43656,-0.28286 -1.27,-0.56433 -1.85208,-0.6255 l -1.05834,-0.11121 -0.10539,2.42879 -0.1054,2.42878 1.14529,-0.22905 c 0.62991,-0.12598 1.51077,-0.46854 1.95748,-0.76123 z m 35.619596,8.42114 c -0.444962,-0.44496 -0.269109,-13.34812 0.188147,-13.80537 1.226086,-1.22609 6.46799,0.10975 8.316341,2.11932 1.896731,2.06217 1.576292,4.96166 -0.677118,6.12695 l -1.16525,0.60257 1.220971,0.92016 c 2.401108,1.80955 2.881538,2.43502 2.466319,3.21086 -0.533986,0.99776 -1.450728,0.88133 -3.039562,-0.38603 -1.224453,-0.97671 -4.398863,-2.78661 -4.887475,-2.78661 -0.103462,0 -0.188115,0.762 -0.188115,1.69333 0,0.93134 -0.1905,1.88384 -0.423333,2.11667 -0.461233,0.46123 -1.436511,0.56256 -1.810925,0.18815 z m 6.560471,-7.81479 c 0.627334,-0.62734 0.678539,-0.87348 0.337449,-1.62209 -0.431962,-0.94806 -2.765957,-2.32238 -3.944052,-2.32238 -0.656985,0 -0.71961,0.21882 -0.71961,2.51433 v 2.51432 l 1.793328,-0.17231 c 1.179192,-0.11331 2.046591,-0.42558 2.532885,-0.91187 z m 78.741003,7.55569 c -0.66332,-0.48503 -0.66127,-0.52973 0.10896,-2.38807 0.43171,-1.04158 0.78493,-2.08915 0.78493,-2.32794 0,-0.23878 0.13466,-0.43415 0.29925,-0.43415 0.16458,0 1.34841,-1.63612 2.63072,-3.63581 1.28231,-1.9997 2.66071,-3.93378 3.06312,-4.29795 0.66019,-0.59747 0.78495,-0.60884 1.27732,-0.11647 0.30012,0.30012 0.92327,2.32855 1.38477,4.50762 0.46151,2.17906 1.08414,4.80483 1.38363,5.83504 0.67952,2.33748 0.68214,2.87094 0.0154,3.12681 -0.95129,0.36504 -1.53188,-0.15613 -2.33647,-2.09735 -0.85764,-2.0692 -1.06207,-2.15771 -3.89995,-1.68847 -1.00261,0.16578 -1.39458,0.44883 -1.72448,1.24528 -0.4878,1.17765 -1.66574,2.76574 -2.05145,2.76574 -0.14286,0 -0.56393,-0.22242 -0.93571,-0.49428 z m 7.23849,-6.82586 c -0.01,-1.77329 -0.5275,-2.03833 -1.35763,-0.69514 -0.97302,1.57437 -0.95638,1.66528 0.3047,1.66528 0.92067,0 1.05763,-0.12619 1.05293,-0.97014 z m 56.53392,6.91036 c -0.55477,-0.55477 -0.61799,-12.3509 -0.0717,-13.37171 0.70142,-1.31061 5.11786,-0.77557 7.38109,0.89419 3.18015,2.34624 3.3085,5.40285 0.30361,7.23023 l -1.03998,0.63246 1.17537,0.72642 c 1.69084,1.04499 2.83394,2.37044 2.69096,3.12022 -0.20152,1.05681 -1.56122,0.97227 -3.01847,-0.18768 -1.18504,-0.94328 -4.64596,-2.86765 -5.15737,-2.86765 -0.10766,0 -0.24335,0.91281 -0.30155,2.02847 -0.0898,1.72109 -0.21333,2.04389 -0.81547,2.13019 -0.39032,0.0559 -0.90626,-0.0949 -1.14653,-0.33514 z m 5.70502,-7.13892 c 1.55408,-0.64933 1.79783,-1.12199 1.11557,-2.16326 -0.76394,-1.16591 -1.98708,-1.92024 -3.51596,-2.16835 l -1.27204,-0.20642 v 2.5156 2.51561 h 1.24606 c 0.68532,0 1.7772,-0.22193 2.42637,-0.49318 z m -42.98034,6.77861 c -0.0801,-0.25553 -0.24388,-2.57061 -0.36404,-5.14462 -0.12016,-2.57402 -0.30886,-4.91558 -0.41934,-5.20348 -0.12916,-0.3366 -0.6829,-0.52344 -1.55126,-0.52344 -1.90295,0 -3.16022,-0.54965 -3.16022,-1.38156 0,-0.38141 0.19843,-0.81718 0.44097,-0.96838 0.58042,-0.36185 10.75422,-0.13767 11.80021,0.26002 0.85694,0.3258 1.10631,1.51335 0.40837,1.94471 -0.22178,0.13706 -1.48409,0.21764 -2.80514,0.17907 l -2.4019,-0.0701 0.0711,5.57438 0.0711,5.57439 -0.97215,0.11182 c -0.57771,0.0664 -1.03121,-0.0767 -1.11771,-0.35278 z M 99.612767,227.4385 c -6.812604,-0.87741 -13.413796,-2.92045 -19.850495,-6.14364 -6.210338,-3.10984 -10.452085,-6.2038 -15.69993,-11.45164 -5.307855,-5.30786 -8.417683,-9.57376 -11.445187,-15.69993 -5.229158,-10.58123 -7.362084,-23.11643 -5.688097,-33.42897 0.509856,-3.14096 2.671269,-11.31446 2.924934,-11.06079 0.07643,0.0764 -0.108247,1.80389 -0.410401,3.8388 -1.685558,11.35165 0.183109,23.39495 5.267477,33.94818 8.877324,18.42598 25.825594,30.9672 45.814162,33.90113 5.44523,0.79925 14.8215,0.54474 19.98287,-0.54242 15.9007,-3.34922 29.71007,-12.30307 38.79864,-25.15663 0.65167,-0.92163 1.24479,-1.67569 1.31805,-1.67569 0.48966,0 -3.5505,6.8268 -5.85432,9.89226 -8.31333,11.06169 -20.00755,18.88819 -32.94157,22.04656 -6.93107,1.69251 -16.07664,2.3235 -22.216133,1.53278 z m -3.26994,-17.05566 c -8.246374,-1.51511 -15.689967,-5.66964 -22.401388,-12.50299 -5.835064,-5.94107 -9.337562,-11.97913 -11.273758,-19.43517 -0.760733,-2.92948 -1.503362,-13.19559 -0.91459,-12.64332 0.136659,0.12819 0.766635,1.71569 1.399942,3.52778 4.69156,13.42398 13.580064,24.85294 25.605072,32.92335 3.625875,2.43345 10.373328,5.74265 14.463885,7.09361 1.64924,0.54469 3.14943,1.11719 3.33375,1.27224 0.53392,0.44909 -7.494449,0.26397 -10.212913,-0.2355 z M 167.22947,169.1812 c -0.0196,-6.46095 -0.11187,-7.52688 -0.96913,-11.19763 -3.42941,-14.68474 -9.49594,-30.37409 -32.87413,-85.019447 -13.13531,-30.703139 -21.49147,-50.770889 -21.24395,-51.018415 0.058,-0.058 2.11488,3.340851 4.57083,7.553007 17.81206,30.549106 34.44999,66.340034 44.23062,95.147355 8.05033,23.71097 9.95531,37.82699 6.74803,50.00319 -0.39435,1.49712 -0.44286,0.92332 -0.46227,-5.46806 z M 55.753699,136.64051 c 1.82644,-3.17293 6.903427,-11.12709 12.722158,-19.93194 13.940599,-21.09478 22.093367,-35.676359 28.855055,-51.608513 4.151188,-9.78119 8.706288,-23.657881 10.648868,-32.440795 0.33259,-1.503715 0.66217,-2.734028 0.73241,-2.734028 0.42958,0 -1.38144,14.974814 -2.53852,20.990278 -4.81155,25.014456 -15.634866,47.824849 -32.204429,67.871588 -3.797709,4.59467 -13.425504,14.60042 -17.125875,17.79819 l -2.105021,1.81911 z"
           style="fill:#8ddaef;fill-opacity:1;stroke-width:0.352778;stroke:none;stroke-opacity:1"
           clip-path="url(#clipPath920)"
           transform="translate(5.8799296,-7.4835468)" />
        <path
           style="fill:#8ddaef;fill-opacity:1;stroke:#8ddaef;stroke-width:0.1;stroke-linecap:butt;stroke-linejoin:miter;stroke-miterlimit:4;stroke-dasharray:none;stroke-opacity:1"
           d="m 55.62547,142.38784 c 0,0 1.353053,-4.54359 5.128234,-11.62623 l 7.330665,-6.86581 c 0,0 -4.124097,4.70709 -6.197616,8.20426 -1.866319,3.14771 -1.996867,3.34482 -3.45397,6.72295 -3.202097,7.42372 -3.807897,14.39649 -3.807897,14.39649 z"
           id="path882"
           sodipodi:nodetypes="cccsscc" />
        <path
           style="fill:#8ddaef;fill-opacity:1;stroke:#8ddaef;stroke-width:0.264583px;stroke-linecap:butt;stroke-linejoin:miter;stroke-opacity:1"
           d="m 165.61065,188.28617 c 0,0 7.10277,-9.81297 8.80228,-25.91389 l -1.16423,-4.3441 c -0.57369,23.05631 -15.52429,38.99992 -15.52429,38.99992 z"
           id="path928"
           sodipodi:nodetypes="ccccc" />
      </g>
    </g>
  </g>
</svg>
